<mxfile host="app.diagrams.net" modified="2023-02-18T13:00:56.811Z" agent="5.0 (Windows NT 10.0; Win64; x64) AppleWebKit/537.36 (KHTML, like Gecko) Chrome/110.0.0.0 Safari/537.36" version="20.8.3" etag="WiMItoExiLFupQ56n9gY" type="github">
  <diagram id="ryMkTRirt44k3g-YlCe4" name="第 1 页">
    <mxGraphModel dx="1633" dy="1091" grid="1" gridSize="10" guides="1" tooltips="1" connect="1" arrows="1" fold="1" page="1" pageScale="1" pageWidth="827" pageHeight="1169" math="0" shadow="0">
      <root>
        <mxCell id="0" />
        <mxCell id="1" parent="0" />
        <mxCell id="87VkEc0FRvjfE5vBsGxS-1" value="ReactImage.setMaterial(string material)" style="whiteSpace=wrap;html=1;" vertex="1" parent="1">
          <mxGeometry x="220" y="180" width="210" height="30" as="geometry" />
        </mxCell>
        <mxCell id="87VkEc0FRvjfE5vBsGxS-2" value="RNUMainCore.LoadMaterial(material)" style="whiteSpace=wrap;html=1;" vertex="1" parent="1">
          <mxGeometry x="205" y="250" width="240" height="40" as="geometry" />
        </mxCell>
        <mxCell id="87VkEc0FRvjfE5vBsGxS-3" value="assetbundle.LoadAsset" style="rounded=0;whiteSpace=wrap;html=1;" vertex="1" parent="1">
          <mxGeometry x="140" y="430" width="140" height="60" as="geometry" />
        </mxCell>
        <mxCell id="87VkEc0FRvjfE5vBsGxS-4" value="in&lt;br&gt;RNUMainCore.assetBundle&lt;br&gt;?" style="rhombus;whiteSpace=wrap;html=1;" vertex="1" parent="1">
          <mxGeometry x="225" y="330" width="200" height="80" as="geometry" />
        </mxCell>
        <mxCell id="87VkEc0FRvjfE5vBsGxS-5" value="otherassetbundle.loadAsset" style="rounded=0;whiteSpace=wrap;html=1;fillColor=#f8cecc;strokeColor=#b85450;" vertex="1" parent="1">
          <mxGeometry x="350" y="430" width="160" height="60" as="geometry" />
        </mxCell>
        <mxCell id="87VkEc0FRvjfE5vBsGxS-7" value="OpenPage&lt;br style=&quot;border-color: var(--border-color);&quot;&gt;(string url,&lt;br style=&quot;border-color: var(--border-color);&quot;&gt;string inGameId,&lt;br style=&quot;border-color: var(--border-color);&quot;&gt;GameObject parentGo,&lt;br style=&quot;border-color: var(--border-color);&quot;&gt;&amp;nbsp;Action closeCallBack)" style="swimlane;fontStyle=0;childLayout=stackLayout;horizontal=1;startSize=80;horizontalStack=0;resizeParent=1;resizeParentMax=0;resizeLast=0;collapsible=1;marginBottom=0;whiteSpace=wrap;html=1;" vertex="1" parent="1">
          <mxGeometry x="630" y="130" width="440" height="170" as="geometry" />
        </mxCell>
        <mxCell id="87VkEc0FRvjfE5vBsGxS-8" value="GMReactUnityMgr.instance.SDK.SetBundleRunning" style="text;strokeColor=#6c8ebf;fillColor=#dae8fc;align=left;verticalAlign=middle;spacingLeft=4;spacingRight=4;overflow=hidden;points=[[0,0.5],[1,0.5]];portConstraint=eastwest;rotatable=0;whiteSpace=wrap;html=1;" vertex="1" parent="87VkEc0FRvjfE5vBsGxS-7">
          <mxGeometry y="80" width="440" height="30" as="geometry" />
        </mxCell>
        <mxCell id="87VkEc0FRvjfE5vBsGxS-9" value="RNUMainCore.OpenPageByBundle" style="text;strokeColor=#82b366;fillColor=#d5e8d4;align=left;verticalAlign=middle;spacingLeft=4;spacingRight=4;overflow=hidden;points=[[0,0.5],[1,0.5]];portConstraint=eastwest;rotatable=0;whiteSpace=wrap;html=1;" vertex="1" parent="87VkEc0FRvjfE5vBsGxS-7">
          <mxGeometry y="110" width="440" height="30" as="geometry" />
        </mxCell>
        <mxCell id="87VkEc0FRvjfE5vBsGxS-10" value="Some logs" style="text;strokeColor=none;fillColor=none;align=left;verticalAlign=middle;spacingLeft=4;spacingRight=4;overflow=hidden;points=[[0,0.5],[1,0.5]];portConstraint=eastwest;rotatable=0;whiteSpace=wrap;html=1;" vertex="1" parent="87VkEc0FRvjfE5vBsGxS-7">
          <mxGeometry y="140" width="440" height="30" as="geometry" />
        </mxCell>
        <mxCell id="87VkEc0FRvjfE5vBsGxS-12" value="&lt;span style=&quot;text-align: left;&quot;&gt;RNUMainCore.OpenPageByBundle&lt;/span&gt;" style="swimlane;fontStyle=0;childLayout=stackLayout;horizontal=1;startSize=30;horizontalStack=0;resizeParent=1;resizeParentMax=0;resizeLast=0;collapsible=1;marginBottom=0;whiteSpace=wrap;html=1;fillColor=#d5e8d4;strokeColor=#82b366;" vertex="1" parent="1">
          <mxGeometry x="630" y="330" width="500" height="270" as="geometry" />
        </mxCell>
        <mxCell id="87VkEc0FRvjfE5vBsGxS-13" value="InitInner //C注入，yoga代码预热" style="text;align=left;verticalAlign=middle;spacingLeft=4;spacingRight=4;overflow=hidden;points=[[0,0.5],[1,0.5]];portConstraint=eastwest;rotatable=0;whiteSpace=wrap;html=1;" vertex="1" parent="87VkEc0FRvjfE5vBsGxS-12">
          <mxGeometry y="30" width="500" height="30" as="geometry" />
        </mxCell>
        <mxCell id="87VkEc0FRvjfE5vBsGxS-14" value="InitPageParentGo" style="text;align=left;verticalAlign=middle;spacingLeft=4;spacingRight=4;overflow=hidden;points=[[0,0.5],[1,0.5]];portConstraint=eastwest;rotatable=0;whiteSpace=wrap;html=1;" vertex="1" parent="87VkEc0FRvjfE5vBsGxS-12">
          <mxGeometry y="60" width="500" height="30" as="geometry" />
        </mxCell>
        <mxCell id="87VkEc0FRvjfE5vBsGxS-15" value="根据调试/生产模式，生成对应JS引擎&amp;nbsp;ExperimentalQuickJSExecutor/QuickJSExecutor &amp;nbsp;" style="text;strokeColor=none;fillColor=none;align=left;verticalAlign=middle;spacingLeft=4;spacingRight=4;overflow=hidden;points=[[0,0.5],[1,0.5]];portConstraint=eastwest;rotatable=0;whiteSpace=wrap;html=1;" vertex="1" parent="87VkEc0FRvjfE5vBsGxS-12">
          <mxGeometry y="90" width="500" height="30" as="geometry" />
        </mxCell>
        <mxCell id="87VkEc0FRvjfE5vBsGxS-16" value="new ModuleManager //初始化RU模块，JSExecutor注入" style="text;strokeColor=#d79b00;fillColor=#ffe6cc;align=left;verticalAlign=middle;spacingLeft=4;spacingRight=4;overflow=hidden;points=[[0,0.5],[1,0.5]];portConstraint=eastwest;rotatable=0;whiteSpace=wrap;html=1;" vertex="1" parent="87VkEc0FRvjfE5vBsGxS-12">
          <mxGeometry y="120" width="500" height="30" as="geometry" />
        </mxCell>
        <mxCell id="87VkEc0FRvjfE5vBsGxS-17" value="load AssetBundle" style="text;strokeColor=#d6b656;fillColor=#fff2cc;align=left;verticalAlign=middle;spacingLeft=4;spacingRight=4;overflow=hidden;points=[[0,0.5],[1,0.5]];portConstraint=eastwest;rotatable=0;whiteSpace=wrap;html=1;" vertex="1" parent="87VkEc0FRvjfE5vBsGxS-12">
          <mxGeometry y="150" width="500" height="30" as="geometry" />
        </mxCell>
        <mxCell id="87VkEc0FRvjfE5vBsGxS-18" value="JSExecutor.LoadApplicationScript" style="text;align=left;verticalAlign=middle;spacingLeft=4;spacingRight=4;overflow=hidden;points=[[0,0.5],[1,0.5]];portConstraint=eastwest;rotatable=0;whiteSpace=wrap;html=1;" vertex="1" parent="87VkEc0FRvjfE5vBsGxS-12">
          <mxGeometry y="180" width="500" height="30" as="geometry" />
        </mxCell>
        <mxCell id="87VkEc0FRvjfE5vBsGxS-19" value="RunApplication" style="text;align=left;verticalAlign=middle;spacingLeft=4;spacingRight=4;overflow=hidden;points=[[0,0.5],[1,0.5]];portConstraint=eastwest;rotatable=0;whiteSpace=wrap;html=1;" vertex="1" parent="87VkEc0FRvjfE5vBsGxS-12">
          <mxGeometry y="210" width="500" height="30" as="geometry" />
        </mxCell>
        <mxCell id="87VkEc0FRvjfE5vBsGxS-29" value="pageParentGo.Add &lt;b&gt;WatchParentGo &lt;/b&gt;com" style="text;align=left;verticalAlign=middle;spacingLeft=4;spacingRight=4;overflow=hidden;points=[[0,0.5],[1,0.5]];portConstraint=eastwest;rotatable=0;whiteSpace=wrap;html=1;" vertex="1" parent="87VkEc0FRvjfE5vBsGxS-12">
          <mxGeometry y="240" width="500" height="30" as="geometry" />
        </mxCell>
        <mxCell id="87VkEc0FRvjfE5vBsGxS-21" value="&lt;span style=&quot;text-align: left;&quot;&gt;load AssetBundle&lt;/span&gt;" style="swimlane;fontStyle=0;childLayout=stackLayout;horizontal=1;startSize=30;horizontalStack=0;resizeParent=1;resizeParentMax=0;resizeLast=0;collapsible=1;marginBottom=0;whiteSpace=wrap;html=1;fillColor=#fff2cc;strokeColor=#d6b656;" vertex="1" parent="1">
          <mxGeometry x="630" y="650" width="500" height="120" as="geometry" />
        </mxCell>
        <mxCell id="87VkEc0FRvjfE5vBsGxS-22" value="[Win]pathPrefix:&quot;.\\Assets\\RNUAssetBundles\\win&quot;" style="text;align=left;verticalAlign=middle;spacingLeft=4;spacingRight=4;overflow=hidden;points=[[0,0.5],[1,0.5]];portConstraint=eastwest;rotatable=0;whiteSpace=wrap;html=1;" vertex="1" parent="87VkEc0FRvjfE5vBsGxS-21">
          <mxGeometry y="30" width="500" height="30" as="geometry" />
        </mxCell>
        <mxCell id="87VkEc0FRvjfE5vBsGxS-23" value="abFileName:&quot;&lt;b&gt;rnubundles&lt;/b&gt;&quot;" style="text;align=left;verticalAlign=middle;spacingLeft=4;spacingRight=4;overflow=hidden;points=[[0,0.5],[1,0.5]];portConstraint=eastwest;rotatable=0;whiteSpace=wrap;html=1;" vertex="1" parent="87VkEc0FRvjfE5vBsGxS-21">
          <mxGeometry y="60" width="500" height="30" as="geometry" />
        </mxCell>
        <mxCell id="87VkEc0FRvjfE5vBsGxS-24" value="AssetBundle.LoadFromFile(abPath)=&amp;gt;&lt;b&gt;RnuMainCore.assetBundle&lt;/b&gt;" style="text;strokeColor=none;fillColor=none;align=left;verticalAlign=middle;spacingLeft=4;spacingRight=4;overflow=hidden;points=[[0,0.5],[1,0.5]];portConstraint=eastwest;rotatable=0;whiteSpace=wrap;html=1;" vertex="1" parent="87VkEc0FRvjfE5vBsGxS-21">
          <mxGeometry y="90" width="500" height="30" as="geometry" />
        </mxCell>
        <mxCell id="87VkEc0FRvjfE5vBsGxS-30" value="preBundlePath&lt;br&gt;&amp;nbsp;=&amp;nbsp;&lt;br&gt;Application.persistentDataPath+&#39;/rnu&#39;" style="whiteSpace=wrap;html=1;" vertex="1" parent="1">
          <mxGeometry x="-50" y="720" width="290" height="50" as="geometry" />
        </mxCell>
        <mxCell id="87VkEc0FRvjfE5vBsGxS-31" value="moduleName" style="whiteSpace=wrap;html=1;" vertex="1" parent="1">
          <mxGeometry x="260" y="730" width="85" height="30" as="geometry" />
        </mxCell>
        <mxCell id="87VkEc0FRvjfE5vBsGxS-32" value="fileName" style="whiteSpace=wrap;html=1;" vertex="1" parent="1">
          <mxGeometry x="387.5" y="730" width="85" height="30" as="geometry" />
        </mxCell>
        <mxCell id="87VkEc0FRvjfE5vBsGxS-33" value="key" style="whiteSpace=wrap;html=1;" vertex="1" parent="1">
          <mxGeometry x="330" y="850" width="70" height="30" as="geometry" />
        </mxCell>
        <mxCell id="87VkEc0FRvjfE5vBsGxS-34" value="abPath&lt;br&gt;load ab" style="whiteSpace=wrap;html=1;" vertex="1" parent="1">
          <mxGeometry x="170" y="850" width="70" height="30" as="geometry" />
        </mxCell>
        <mxCell id="87VkEc0FRvjfE5vBsGxS-35" value="" style="endArrow=classic;html=1;rounded=0;exitX=0.5;exitY=1;exitDx=0;exitDy=0;entryX=0.5;entryY=0;entryDx=0;entryDy=0;" edge="1" parent="1" source="87VkEc0FRvjfE5vBsGxS-30" target="87VkEc0FRvjfE5vBsGxS-34">
          <mxGeometry width="50" height="50" relative="1" as="geometry">
            <mxPoint x="240" y="850" as="sourcePoint" />
            <mxPoint x="290" y="800" as="targetPoint" />
            <Array as="points">
              <mxPoint x="95" y="810" />
              <mxPoint x="205" y="810" />
            </Array>
          </mxGeometry>
        </mxCell>
        <mxCell id="87VkEc0FRvjfE5vBsGxS-36" value="" style="endArrow=classic;html=1;rounded=0;exitX=0.5;exitY=1;exitDx=0;exitDy=0;entryX=0.5;entryY=0;entryDx=0;entryDy=0;" edge="1" parent="1" source="87VkEc0FRvjfE5vBsGxS-31" target="87VkEc0FRvjfE5vBsGxS-34">
          <mxGeometry width="50" height="50" relative="1" as="geometry">
            <mxPoint x="350" y="710" as="sourcePoint" />
            <mxPoint x="400" y="660" as="targetPoint" />
            <Array as="points">
              <mxPoint x="303" y="810" />
              <mxPoint x="205" y="810" />
            </Array>
          </mxGeometry>
        </mxCell>
        <mxCell id="87VkEc0FRvjfE5vBsGxS-37" value="" style="endArrow=classic;html=1;rounded=0;exitX=0.5;exitY=1;exitDx=0;exitDy=0;entryX=0.5;entryY=0;entryDx=0;entryDy=0;" edge="1" parent="1" source="87VkEc0FRvjfE5vBsGxS-32" target="87VkEc0FRvjfE5vBsGxS-34">
          <mxGeometry width="50" height="50" relative="1" as="geometry">
            <mxPoint x="290" y="670" as="sourcePoint" />
            <mxPoint x="340" y="620" as="targetPoint" />
            <Array as="points">
              <mxPoint x="430" y="810" />
              <mxPoint x="205" y="810" />
            </Array>
          </mxGeometry>
        </mxCell>
        <mxCell id="87VkEc0FRvjfE5vBsGxS-38" value="RNUMainCore.LoadAbFormOtherName&lt;br&gt;otherassetbundle" style="rounded=0;whiteSpace=wrap;html=1;fillColor=#f8cecc;strokeColor=#b85450;" vertex="1" parent="1">
          <mxGeometry x="140" y="930" width="260" height="30" as="geometry" />
        </mxCell>
        <mxCell id="87VkEc0FRvjfE5vBsGxS-39" value="" style="endArrow=none;dashed=1;html=1;dashPattern=1 3;strokeWidth=2;rounded=0;exitX=0.5;exitY=0;exitDx=0;exitDy=0;entryX=0.75;entryY=1;entryDx=0;entryDy=0;" edge="1" parent="1" source="87VkEc0FRvjfE5vBsGxS-33" target="87VkEc0FRvjfE5vBsGxS-31">
          <mxGeometry width="50" height="50" relative="1" as="geometry">
            <mxPoint x="350" y="740" as="sourcePoint" />
            <mxPoint x="400" y="690" as="targetPoint" />
            <Array as="points">
              <mxPoint x="365" y="790" />
              <mxPoint x="324" y="790" />
            </Array>
          </mxGeometry>
        </mxCell>
        <mxCell id="87VkEc0FRvjfE5vBsGxS-40" value="" style="endArrow=none;dashed=1;html=1;dashPattern=1 3;strokeWidth=2;rounded=0;exitX=0.5;exitY=0;exitDx=0;exitDy=0;entryX=0.25;entryY=1;entryDx=0;entryDy=0;" edge="1" parent="1" source="87VkEc0FRvjfE5vBsGxS-33" target="87VkEc0FRvjfE5vBsGxS-32">
          <mxGeometry width="50" height="50" relative="1" as="geometry">
            <mxPoint x="500" y="880" as="sourcePoint" />
            <mxPoint x="550" y="830" as="targetPoint" />
            <Array as="points">
              <mxPoint x="365" y="790" />
              <mxPoint x="409" y="790" />
            </Array>
          </mxGeometry>
        </mxCell>
        <mxCell id="87VkEc0FRvjfE5vBsGxS-41" value="" style="endArrow=classic;html=1;rounded=0;exitX=0.5;exitY=1;exitDx=0;exitDy=0;entryX=0.5;entryY=0;entryDx=0;entryDy=0;" edge="1" parent="1" source="87VkEc0FRvjfE5vBsGxS-34" target="87VkEc0FRvjfE5vBsGxS-38">
          <mxGeometry width="50" height="50" relative="1" as="geometry">
            <mxPoint x="320" y="1070" as="sourcePoint" />
            <mxPoint x="370" y="1020" as="targetPoint" />
            <Array as="points">
              <mxPoint x="205" y="900" />
              <mxPoint x="270" y="900" />
            </Array>
          </mxGeometry>
        </mxCell>
        <mxCell id="87VkEc0FRvjfE5vBsGxS-42" value="" style="endArrow=classic;html=1;rounded=0;exitX=0.5;exitY=1;exitDx=0;exitDy=0;entryX=0.5;entryY=0;entryDx=0;entryDy=0;" edge="1" parent="1" source="87VkEc0FRvjfE5vBsGxS-33" target="87VkEc0FRvjfE5vBsGxS-38">
          <mxGeometry width="50" height="50" relative="1" as="geometry">
            <mxPoint x="490" y="940" as="sourcePoint" />
            <mxPoint x="540" y="890" as="targetPoint" />
            <Array as="points">
              <mxPoint x="365" y="900" />
              <mxPoint x="270" y="900" />
            </Array>
          </mxGeometry>
        </mxCell>
      </root>
    </mxGraphModel>
  </diagram>
</mxfile>
